<svg width="103" height="23" viewBox="0 0 103 23" fill="none" xmlns="http://www.w3.org/2000/svg">
<path d="M-0.000643364 13.9102L12.7022 6.81353L12.7051 -6.20032e-05L-0.000642861 7.09312L-0.000643364 13.9102Z" fill="#B5CBEF"/>
<path d="M27 10.7309L13.8972 18.303L13.8972 3.15872L27 10.7309Z" fill="#1071FF"/>
<path d="M5.95517 18.5926L12.7051 22.2568L12.7051 15.4982L5.95517 11.9235L5.95517 18.5926Z" fill="#B5CBEF"/>
<path d="M37.7727 8.27273C37.7045 7.69697 37.428 7.25 36.9432 6.93182C36.4583 6.61364 35.8636 6.45455 35.1591 6.45455C34.6439 6.45455 34.1932 6.53788 33.8068 6.70455C33.4242 6.87121 33.125 7.10038 32.9091 7.39205C32.697 7.68371 32.5909 8.01515 32.5909 8.38636C32.5909 8.69697 32.6648 8.96401 32.8125 9.1875C32.964 9.4072 33.1572 9.59091 33.392 9.73864C33.6269 9.88258 33.8731 10.0019 34.1307 10.0966C34.3883 10.1875 34.625 10.2614 34.8409 10.3182L36.0227 10.6364C36.3258 10.7159 36.6629 10.8258 37.0341 10.9659C37.4091 11.1061 37.767 11.2973 38.108 11.5398C38.4527 11.7784 38.7367 12.0852 38.9602 12.4602C39.1837 12.8352 39.2955 13.2955 39.2955 13.8409C39.2955 14.4697 39.1307 15.0379 38.8011 15.5455C38.4754 16.053 37.9981 16.4564 37.3693 16.7557C36.7443 17.0549 35.9848 17.2045 35.0909 17.2045C34.2576 17.2045 33.536 17.0701 32.9261 16.8011C32.3201 16.5322 31.8428 16.1572 31.4943 15.6761C31.1496 15.1951 30.9545 14.6364 30.9091 14H32.3636C32.4015 14.4394 32.5492 14.803 32.8068 15.0909C33.0682 15.375 33.3977 15.5871 33.7955 15.7273C34.197 15.8636 34.6288 15.9318 35.0909 15.9318C35.6288 15.9318 36.1117 15.8447 36.5398 15.6705C36.9678 15.4924 37.3068 15.2462 37.5568 14.9318C37.8068 14.6136 37.9318 14.2424 37.9318 13.8182C37.9318 13.4318 37.8239 13.1174 37.608 12.875C37.392 12.6326 37.108 12.4356 36.7557 12.2841C36.4034 12.1326 36.0227 12 35.6136 11.8864L34.1818 11.4773C33.2727 11.2159 32.553 10.8428 32.0227 10.358C31.4924 9.87311 31.2273 9.23864 31.2273 8.45455C31.2273 7.80303 31.4034 7.23485 31.7557 6.75C32.1117 6.26136 32.589 5.88258 33.1875 5.61364C33.7898 5.34091 34.4621 5.20455 35.2045 5.20455C35.9545 5.20455 36.6212 5.33901 37.2045 5.60795C37.7879 5.87311 38.25 6.23674 38.5909 6.69886C38.9356 7.16098 39.1174 7.68561 39.1364 8.27273H37.7727ZM42.7713 11.75V17H41.4304V5.36364H42.7713V9.63636H42.8849C43.0895 9.18561 43.3963 8.82765 43.8054 8.5625C44.2183 8.29356 44.7675 8.15909 45.4531 8.15909C46.0478 8.15909 46.5687 8.27841 47.0156 8.51705C47.4626 8.75189 47.8092 9.11364 48.0554 9.60227C48.3054 10.0871 48.4304 10.7045 48.4304 11.4545V17H47.0895V11.5455C47.0895 10.8523 46.9096 10.3163 46.5497 9.9375C46.1937 9.55492 45.6993 9.36364 45.0668 9.36364C44.6274 9.36364 44.2334 9.45644 43.8849 9.64205C43.5402 9.82765 43.2675 10.0985 43.0668 10.4545C42.8698 10.8106 42.7713 11.2424 42.7713 11.75ZM54.429 17.1818C53.6411 17.1818 52.9498 16.9943 52.3551 16.6193C51.7642 16.2443 51.3021 15.7197 50.9688 15.0455C50.6392 14.3712 50.4744 13.5833 50.4744 12.6818C50.4744 11.7727 50.6392 10.9792 50.9688 10.3011C51.3021 9.62311 51.7642 9.09659 52.3551 8.72159C52.9498 8.34659 53.6411 8.15909 54.429 8.15909C55.2169 8.15909 55.9063 8.34659 56.4972 8.72159C57.0919 9.09659 57.554 9.62311 57.8835 10.3011C58.2169 10.9792 58.3835 11.7727 58.3835 12.6818C58.3835 13.5833 58.2169 14.3712 57.8835 15.0455C57.554 15.7197 57.0919 16.2443 56.4972 16.6193C55.9063 16.9943 55.2169 17.1818 54.429 17.1818ZM54.429 15.9773C55.0275 15.9773 55.5199 15.8239 55.9062 15.517C56.2926 15.2102 56.5786 14.8068 56.7642 14.3068C56.9498 13.8068 57.0426 13.2652 57.0426 12.6818C57.0426 12.0985 56.9498 11.5549 56.7642 11.0511C56.5786 10.5473 56.2926 10.1402 55.9062 9.82955C55.5199 9.51894 55.0275 9.36364 54.429 9.36364C53.8305 9.36364 53.3381 9.51894 52.9517 9.82955C52.5653 10.1402 52.2794 10.5473 52.0938 11.0511C51.9081 11.5549 51.8153 12.0985 51.8153 12.6818C51.8153 13.2652 51.9081 13.8068 52.0938 14.3068C52.2794 14.8068 52.5653 15.2102 52.9517 15.517C53.3381 15.8239 53.8305 15.9773 54.429 15.9773ZM60.4304 20.2727V8.27273H61.7259V9.65909H61.8849C61.9834 9.50758 62.1198 9.31439 62.294 9.07955C62.4721 8.84091 62.7259 8.62879 63.0554 8.44318C63.3887 8.25379 63.8395 8.15909 64.4077 8.15909C65.1425 8.15909 65.7902 8.3428 66.3509 8.71023C66.9115 9.07765 67.349 9.59848 67.6634 10.2727C67.9777 10.947 68.1349 11.7424 68.1349 12.6591C68.1349 13.5833 67.9777 14.3845 67.6634 15.0625C67.349 15.7367 66.9134 16.2595 66.3565 16.6307C65.7997 16.9981 65.1577 17.1818 64.4304 17.1818C63.8698 17.1818 63.4209 17.089 63.0838 16.9034C62.7467 16.714 62.4872 16.5 62.3054 16.2614C62.1236 16.0189 61.9834 15.8182 61.8849 15.6591H61.7713V20.2727H60.4304ZM61.7486 12.6364C61.7486 13.2955 61.8452 13.8769 62.0384 14.3807C62.2315 14.8807 62.5137 15.2727 62.8849 15.5568C63.2562 15.8371 63.7107 15.9773 64.2486 15.9773C64.8092 15.9773 65.277 15.8295 65.652 15.5341C66.0308 15.2348 66.3149 14.8333 66.5043 14.3295C66.6974 13.822 66.794 13.2576 66.794 12.6364C66.794 12.0227 66.6993 11.4697 66.5099 10.9773C66.3243 10.4811 66.0421 10.089 65.6634 9.80114C65.2884 9.50947 64.8168 9.36364 64.2486 9.36364C63.7031 9.36364 63.2448 9.50189 62.8736 9.77841C62.5024 10.0511 62.2221 10.4337 62.0327 10.9261C61.8433 11.4148 61.7486 11.9848 61.7486 12.6364ZM71.9702 17H69.3338L73.3509 5.36364H76.5213L80.5327 17H77.8963L74.9815 8.02273H74.8906L71.9702 17ZM71.8054 12.4261H78.0327V14.3466H71.8054V12.4261ZM81.8878 20.2727V8.27273H84.2741V9.73864H84.3821C84.4882 9.50379 84.6416 9.26515 84.8423 9.02273C85.0469 8.77652 85.312 8.57197 85.6378 8.40909C85.9673 8.24242 86.3764 8.15909 86.8651 8.15909C87.5014 8.15909 88.0885 8.32576 88.6264 8.65909C89.1643 8.98864 89.5942 9.48674 89.9162 10.1534C90.2382 10.8163 90.3991 11.6477 90.3991 12.6477C90.3991 13.6212 90.242 14.4432 89.9276 15.1136C89.617 15.7803 89.1927 16.286 88.6548 16.6307C88.1207 16.9716 87.5223 17.142 86.8594 17.142C86.3897 17.142 85.9901 17.0644 85.6605 16.9091C85.3348 16.7538 85.0677 16.5587 84.8594 16.3239C84.651 16.0852 84.492 15.8447 84.3821 15.6023H84.3082V20.2727H81.8878ZM84.2571 12.6364C84.2571 13.1553 84.3291 13.608 84.473 13.9943C84.617 14.3807 84.8253 14.6818 85.098 14.8977C85.3707 15.1098 85.7022 15.2159 86.0923 15.2159C86.4863 15.2159 86.8196 15.108 87.0923 14.892C87.3651 14.6723 87.5715 14.3693 87.7116 13.983C87.8556 13.5928 87.9276 13.1439 87.9276 12.6364C87.9276 12.1326 87.8575 11.6894 87.7173 11.3068C87.5772 10.9242 87.3707 10.625 87.098 10.4091C86.8253 10.1932 86.4901 10.0852 86.0923 10.0852C85.6984 10.0852 85.3651 10.1894 85.0923 10.3977C84.8234 10.6061 84.617 10.9015 84.473 11.2841C84.3291 11.6667 84.2571 12.1174 84.2571 12.6364ZM92.0128 20.2727V8.27273H94.3991V9.73864H94.5071C94.6132 9.50379 94.7666 9.26515 94.9673 9.02273C95.1719 8.77652 95.437 8.57197 95.7628 8.40909C96.0923 8.24242 96.5014 8.15909 96.9901 8.15909C97.6264 8.15909 98.2135 8.32576 98.7514 8.65909C99.2893 8.98864 99.7192 9.48674 100.041 10.1534C100.363 10.8163 100.524 11.6477 100.524 12.6477C100.524 13.6212 100.367 14.4432 100.053 15.1136C99.742 15.7803 99.3177 16.286 98.7798 16.6307C98.2457 16.9716 97.6473 17.142 96.9844 17.142C96.5147 17.142 96.1151 17.0644 95.7855 16.9091C95.4598 16.7538 95.1927 16.5587 94.9844 16.3239C94.776 16.0852 94.617 15.8447 94.5071 15.6023H94.4332V20.2727H92.0128ZM94.3821 12.6364C94.3821 13.1553 94.4541 13.608 94.598 13.9943C94.742 14.3807 94.9503 14.6818 95.223 14.8977C95.4957 15.1098 95.8272 15.2159 96.2173 15.2159C96.6113 15.2159 96.9446 15.108 97.2173 14.892C97.4901 14.6723 97.6965 14.3693 97.8366 13.983C97.9806 13.5928 98.0526 13.1439 98.0526 12.6364C98.0526 12.1326 97.9825 11.6894 97.8423 11.3068C97.7022 10.9242 97.4957 10.625 97.223 10.4091C96.9503 10.1932 96.6151 10.0852 96.2173 10.0852C95.8234 10.0852 95.4901 10.1894 95.2173 10.3977C94.9484 10.6061 94.742 10.9015 94.598 11.2841C94.4541 11.6667 94.3821 12.1174 94.3821 12.6364Z" fill="black"/>
</svg>
